<svg width="24" height="24" viewBox="0 0 24 24" fill="none" xmlns="http://www.w3.org/2000/svg">
<path d="M12 21C16.9706 21 21 16.9706 21 12C21 7.02944 16.9706 3 12 3C7.02944 3 3 7.02944 3 12C3 16.9706 7.02944 21 12 21Z" stroke="black" stroke-width="2" stroke-linecap="round" stroke-linejoin="round"/>
<path d="M15.0006 14.2506C14.5283 14.8801 13.8699 15.345 13.1186 15.5796C12.3674 15.8141 11.5614 15.8064 10.8148 15.5574C10.0683 15.3085 9.41892 14.831 8.95878 14.1925C8.49865 13.5541 8.25104 12.787 8.25104 12C8.25103 11.213 8.49863 10.446 8.95875 9.80751C9.41888 9.16904 10.0682 8.69151 10.8148 8.44257C11.5614 8.19362 12.3674 8.18586 13.1186 8.4204C13.8698 8.65493 14.5282 9.11988 15.0006 9.74937" stroke="black" stroke-width="2" stroke-linecap="round" stroke-linejoin="round"/>
</svg>
